<svg version="1.1" xmlns="http://www.w3.org/2000/svg" xmlns:xlink="http://www.w3.org/1999/xlink" width="62.91717" height="27.84072" viewBox="0,0,62.91717,27.84072"><g transform="translate(-209.44335,-129.04202)"><g data-paper-data="{&quot;isPaintingLayer&quot;:true}" fill-rule="nonzero" stroke-linecap="butt" stroke-linejoin="miter" stroke-miterlimit="10" stroke-dasharray="" stroke-dashoffset="0" style="mix-blend-mode: normal"><path d="M247.83116,151.32578l-7.87647,5.2564l-7.87647,-5.2564z" fill="#315085" stroke="#000000" stroke-width="0.5"/><text transform="translate(211.15469,146.35683) scale(0.40267,0.40267)" font-size="40" xml:space="preserve" fill="#000000" fill-rule="nonzero" stroke="#ff0000" stroke-width="1" stroke-linecap="butt" stroke-linejoin="miter" stroke-miterlimit="10" stroke-dasharray="" stroke-dashoffset="0" font-family="Sans Serif" font-weight="normal" text-anchor="start" style="mix-blend-mode: normal"><tspan x="0" dy="0">jugador</tspan></text><path d="M249.82075,145.55346c-0.87756,0 -1.64952,-0.45216 -2.0956,-1.13622c-0.73151,-0.74932 -1.1066,-1.99941 -0.73707,-3.47755c0.00418,-0.18301 0.02803,-0.36116 0.06951,-0.53242c0.08705,-1.13165 0.73151,-1.65148 1.5626,-1.75485c0.27017,-0.09993 0.56232,-0.15451 0.86722,-0.15451c0.83908,0 1.5816,0.41337 2.03505,1.04757c1.00073,0.71818 1.65914,1.75688 1.24273,2.73021c-0.13952,0.32612 -0.28918,0.6216 -0.44683,0.88796c-0.05766,1.32959 -1.15382,2.38982 -2.49762,2.38982z" fill="#000000" stroke="none" stroke-width="0.5"/><path d="M256.97184,141.0821c0,-1.72272 3.46656,-4.51719 4.6733,-2.4054c0.73685,0.43488 1.23117,1.23698 1.23117,2.15454c0,0.48491 -0.13806,0.93758 -0.37701,1.32084c-1.59373,4.51605 -5.52745,6.1729 -5.52745,-1.06997z" fill="#000000" stroke="none" stroke-width="0.5"/><path d="M233.20964,140.7942c0,0.29487 -0.06381,0.57483 -0.17838,0.82684c0.32581,2.18095 -1.09638,4.48243 -2.76606,4.09909c-1.38888,-0.31887 -4.55821,-4.82388 -2.32121,-6.10217c0.43488,-0.73685 1.23698,-1.23117 2.15454,-1.23117c0.51845,0 1.00003,0.15781 1.39935,0.42802c0.968,0.13972 1.71177,0.97269 1.71177,1.97938z" fill="#000000" stroke="none" stroke-width="0.5"/><path d="M241.26519,141.05346c1.10457,0 2,0.89543 2,2c0,1.10457 -0.89543,2 -2,2c-0.02635,0 -0.05258,-0.00051 -0.07869,-0.00152c-0.96393,0.58292 -2.40545,1.01539 -2.82527,0.28071c-0.58948,-0.3479 -0.98493,-0.98959 -0.98493,-1.72363c0,-1.10457 0.89543,-2 2,-2c0.15601,0 0.30784,0.01786 0.45357,0.05165c0.36347,-0.3745 0.87222,-0.60721 1.43532,-0.60721z" fill="#000000" stroke="none" stroke-width="0.5"/><path d="M231.93186,142.12753c0,1.47276 -0.94518,2.66667 -2.11111,2.66667c-1.16593,0 -2.11111,-1.19391 -2.11111,-2.66667c0,-1.47276 0.94518,-2.66667 2.11111,-2.66667c1.16593,0 2.11111,1.19391 2.11111,2.66667z" fill="#ffffff" stroke="none" stroke-width="0"/><path d="M242.32075,143.65531c0,0.93582 -1.04467,1.69444 -2.33333,1.69444c-1.28866,0 -2.33333,-0.75863 -2.33333,-1.69444c0,-0.93582 1.04467,-1.69444 2.33333,-1.69444c1.28866,0 2.33333,0.75863 2.33333,1.69444z" fill="#ffffff" stroke="none" stroke-width="0"/><path d="M251.48741,141.76642c0,1.79493 -0.93274,3.25 -2.08333,3.25c-1.15059,0 -2.08333,-1.45507 -2.08333,-3.25c0,-1.79493 0.93274,-3.25 2.08333,-3.25c1.15059,0 2.08333,1.45507 2.08333,3.25z" fill="#ffffff" stroke="none" stroke-width="0"/><path d="M262.43186,142.0442c0,1.61083 -1.05711,2.91667 -2.36111,2.91667c-1.30401,0 -2.36111,-1.30584 -2.36111,-2.91667c0,-1.61083 1.05711,-2.91667 2.36111,-2.91667c1.30401,0 2.36111,1.30584 2.36111,2.91667z" fill="#ffffff" stroke="none" stroke-width="0"/></g></g></svg>